<svg xmlns="http://www.w3.org/2000/svg" width="225pt" height="225pt" viewBox="0 0 225 225.00001"><symbol id="a" transform="translate(-802.996 -685.855)" viewBox="0 0 112 119"><image width="112" height="119"/></symbol><path fill="#ffe000" d="M-757.78-93.515c0 11.648 9.446 21.094 21.094 21.094h182.813c11.648 0 21.093-9.446 21.093-21.094v-182.812c0-11.649-9.445-21.094-21.093-21.094h-182.813c-11.648 0-21.094 9.445-21.094 21.094z" style="stroke-width:6.61452" transform="translate(757.78 297.421)"/><path fill="#fff" d="m-646.07-223.587-55.159 28.827c-.562.284-.92.873-.92 1.508v61.773c0 .622.345 1.21.9 1.508l53.453 28.72c1.137.609 2.52-.218 2.52-1.508v-60.483c0-.635.344-1.217.912-1.508l55.946-29.435v-.1l-56.078-29.302a1.698 1.698 0 0 0-1.574 0" style="stroke-width:6.61452" transform="translate(757.78 297.421)"/><path fill="#ffe000" d="m-645.278-99.9 55.965-30.077c.562-.297.893-.873.893-1.508v-59.875c0-1.29-1.356-2.116-2.493-1.508l-53.453 28.119a1.676 1.676 0 0 0-.912 1.508z" style="stroke-width:6.61452" transform="translate(757.78 297.421)"/><path fill="#e34a14" d="M-613.852-256.476c-6.767-6.767-17.734-6.767-24.5 0l-5.325 5.338-5.338-5.338c-6.767-6.767-17.733-6.767-24.5 0-6.754 6.767-6.754 17.734 0 24.5l5.338 5.325v.012l24.487 24.487h.012l24.493-24.487-.006-.012 5.338-5.325c6.767-6.766 6.767-17.733 0-24.5" style="stroke-width:6.61452" transform="translate(757.78 297.421)"/><path d="m-696.76-185.108 46.096 24.004v52.195l-46.097-24.765zm35.877-24.666 11.8 11.807a5.328 5.328 0 0 0 3.797 1.574h.012a5.437 5.437 0 0 0 3.81-1.574l11.793-11.807 29.905 15.623-45.244 23.568c-.086.053-.165.113-.244.152l-45.548-23.72zm-10.418-25.638c-4.657-4.657-4.657-12.224 0-16.88a11.827 11.827 0 0 1 8.433-3.5c3.195 0 6.192 1.237 8.447 3.5l5.338 5.331a5.374 5.374 0 0 0 7.607 0l5.338-5.331a11.835 11.835 0 0 1 8.446-3.5c3.182 0 6.178 1.237 8.434 3.5 4.65 4.656 4.65 12.223 0 16.88l-12.435 12.429-7.978 7.99-5.602 5.603-5.61-5.603-7.983-7.99zm77.502 101.738-46.096 24.765v-52.195l46.096-24.005zm5.127-66.827-33.02-17.25 10.054-10.054c8.85-8.85 8.85-23.257 0-32.107-4.3-4.286-9.995-6.648-16.054-6.648-6.078 0-11.767 2.362-16.053 6.648l-1.528 1.528-1.528-1.528c-4.3-4.286-9.995-6.648-16.067-6.648-6.059 0-11.754 2.362-16.04 6.648-8.863 8.85-8.863 23.256-.012 32.107l10.054 10.054-33.02 17.25a10.48 10.48 0 0 0-5.648 9.32v57.66a10.49 10.49 0 0 0 5.536 9.253l51.752 27.814a10.556 10.556 0 0 0 4.974 1.237c1.727 0 3.44-.423 4.968-1.237l51.745-27.814a10.481 10.481 0 0 0 5.537-9.254v-57.659c0-3.929-2.163-7.5-5.65-9.32" style="stroke-width:6.61452" transform="translate(757.78 297.421)"/></svg>